<?xml version="1.0" standalone="no"?><!DOCTYPE svg PUBLIC "-//W3C//DTD SVG 1.1//EN" "http://www.w3.org/Graphics/SVG/1.1/DTD/svg11.dtd"><svg class="icon" width="200px" height="200.00px" viewBox="0 0 1024 1024" version="1.1" xmlns="http://www.w3.org/2000/svg"><path d="M0 0h1024v1024H0z" fill="#ffffff" /><path d="M100.5568 182.1568m60.2112 0l702.464 0q60.2112 0 60.2112 60.2112l0 559.5136q0 60.2112-60.2112 60.2112l-702.464 0q-60.2112 0-60.2112-60.2112l0-559.5136q0-60.2112 60.2112-60.2112Z" fill="#e94861" /><path d="M365.0304 293.632c51.6224-38.7456 124.8512-35.2256 171.392 11.136 51.0464 50.88 50.3936 133.8112-1.1904 185.216L384.4096 640.256a25.8048 25.8048 0 0 1-19.3792 7.5264 25.8048 25.8048 0 0 1-19.3792-7.5264L194.8288 489.984c-51.584-51.4048-52.224-134.336-1.1776-185.216 46.528-46.3616 119.7696-49.8816 171.392-11.136z" fill="#e94861" /></svg>